<?xml version="1.0" standalone="no"?>
<!DOCTYPE svg PUBLIC "-//W3C//DTD SVG 20010904//EN"
 "http://www.w3.org/TR/2001/REC-SVG-20010904/DTD/svg10.dtd">
<svg version="1.0" xmlns="http://www.w3.org/2000/svg"
 width="512.000000pt" height="512.000000pt" viewBox="0 0 512.000000 512.000000"
 preserveAspectRatio="xMidYMid meet">
<metadata>
Created by potrace 1.11, written by Peter Selinger 2001-2013
</metadata>
<g transform="translate(0.000000,512.000000) scale(0.100000,-0.100000)"
fill="#000000" stroke="none">
<path d="M554 4675 c-41 -18 -93 -71 -110 -112 -11 -26 -14 -181 -14 -828 0
-696 2 -800 15 -833 20 -47 50 -78 100 -105 40 -22 44 -22 810 -25 559 -2 785
0 824 8 39 9 65 23 97 52 76 70 74 40 74 900 0 514 -4 773 -11 802 -14 56 -58
109 -112 135 -43 21 -51 21 -843 20 -653 0 -805 -3 -830 -14z m1366 -940 l0
-535 -535 0 -535 0 0 528 c0 291 3 532 7 535 3 4 244 7 535 7 l528 0 0 -535z"/>
<path d="M2900 4674 c-46 -20 -77 -50 -103 -99 -22 -40 -22 -44 -25 -810 -2
-559 0 -785 8 -824 9 -39 23 -65 52 -97 70 -76 40 -74 900 -74 521 0 773 3
803 11 24 6 62 26 84 45 75 65 72 21 69 925 l-3 806 -27 39 c-15 21 -44 50
-65 64 l-37 25 -810 2 c-708 2 -815 0 -846 -13z m1368 -941 l2 -533 -535 0
-535 0 0 535 0 535 533 -2 532 -3 3 -532z"/>
<path d="M578 2336 c-57 -20 -85 -42 -116 -88 l-27 -42 0 -822 0 -822 30 -43
c17 -23 50 -53 74 -66 l44 -23 799 0 c698 0 803 2 836 15 47 20 78 50 105 100
22 40 22 43 25 819 3 889 6 855 -73 924 -27 23 -63 44 -90 51 -69 17 -1558 15
-1607 -3z m1342 -951 l0 -535 -532 2 -533 3 -3 533 -2 532 535 0 535 0 0 -535z"/>
<path d="M2926 2338 c-57 -16 -129 -91 -144 -150 -16 -64 -17 -1539 -1 -1603
6 -24 26 -62 45 -84 65 -75 21 -72 926 -69 l806 3 43 30 c23 17 53 50 66 74
l23 44 0 799 c0 698 -2 803 -15 836 -20 47 -50 78 -100 105 -40 22 -42 22
-825 24 -523 1 -798 -2 -824 -9z m1342 -950 l-3 -533 -532 -3 -533 -2 0 535 0
535 535 0 535 0 -2 -532z"/>
</g>
</svg>
